<svg xmlns="http://www.w3.org/2000/svg" viewBox="352.84 784.04 431.18 431.18" role="img" aria-label="Transitrix">
  <defs>
    <linearGradient id="tx-icon-grad-1" gradientUnits="userSpaceOnUse" x1="400" y1="1009.0823" x2="568.4022" y2="1009.0823">
      <stop offset="0" stop-color="#FF4D00"/>
      <stop offset="1" stop-color="#FFAF00"/>
    </linearGradient>
    <linearGradient id="tx-icon-grad-2" gradientUnits="userSpaceOnUse" x1="495.891" y1="1074.8777" x2="733.0772" y2="1074.8777">
      <stop offset="0" stop-color="#FF4D00"/>
      <stop offset="1" stop-color="#FFAF00"/>
    </linearGradient>
  </defs>
  <path fill="#004D67" d="M567.95,1061.08l-103.8,70.48c-6.95,4.74-15.02,7.12-23.1,7.12c-6.61,0-13.21-1.58-19.26-4.8c-7.96-4.18-14.12-10.79-17.85-18.58l71.55-49.53l0.62-0.4l19.77-13.38c40.38-14.29,65.62,4.07,65.62,4.07L567.95,1061.08z"/>
  <path fill="url(#tx-icon-grad-1)" d="M448.06,1084.34l27.5-18.69l-71.55,49.53c-2.6-5.42-4.01-11.46-4.01-17.73v-93.63c0-12.59,5.65-24.28,15.53-32.13l74.94-59.69c45.07-19.88,77.93-0.62,77.93-0.62l-120.34,95.83V1084.34z"/>
  <path fill="#004D67" d="M736.86,1003.81v93.63c0,6.1-1.36,11.97-3.78,17.28l-78.67-53.76l34.39,23.32v-77.14l-120.4-95.78c0,0-32.87-19.26-77.93,0.62l52.35-41.68c15.08-11.97,36.14-11.97,51.22,0l127.35,101.37C731.21,979.53,736.86,991.22,736.86,1003.81z"/>
  <path fill="url(#tx-icon-grad-2)" d="M733.08,1114.78c-3.73,8.02-9.94,14.74-18.07,19.03c-13.5,7.12-29.7,6.27-42.35-2.32l-104.25-70.76l-0.45,0.28l-6.44-5.14c0,0-25.24-18.3-65.62-4.07l49.41-33.54c7-4.74,15.02-7.12,23.1-7.12c8.02,0,16.04,2.37,23.1,7.12l62.91,42.69l0,0L733.08,1114.78z"/>
</svg>
